<svg width="64" height="64" viewBox="0 0 64 64" fill="none" xmlns="http://www.w3.org/2000/svg">
<path d="M26.1738 31.9999C26.1738 28.7831 28.7824 26.1746 32.0012 26.1746C35.2199 26.1746 37.83 28.7831 37.83 31.9999C37.83 35.2168 35.2199 37.8252 32.0012 37.8252C28.7824 37.8252 26.1738 35.2168 26.1738 31.9999ZM23.0228 31.9999C23.0228 36.9557 27.0424 40.9729 32.0012 40.9729C36.9599 40.9729 40.9795 36.9557 40.9795 31.9999C40.9795 27.0441 36.9599 23.027 32.0012 23.027C27.0424 23.027 23.0228 27.0441 23.0228 31.9999ZM39.2367 22.6712C39.2366 23.0859 39.3595 23.4914 39.5899 23.8363C39.8203 24.1813 40.1479 24.4502 40.5312 24.609C40.9146 24.7679 41.3364 24.8096 41.7435 24.7288C42.1505 24.6481 42.5245 24.4485 42.818 24.1554C43.1116 23.8622 43.3115 23.4887 43.3927 23.0819C43.4738 22.6752 43.4324 22.2536 43.2738 21.8703C43.1151 21.4871 42.8463 21.1595 42.5013 20.9289C42.1564 20.6984 41.7508 20.5752 41.3358 20.5751H41.3349C40.7787 20.5753 40.2453 20.7962 39.8519 21.1892C39.4585 21.5823 39.2372 22.1153 39.2367 22.6712ZM24.9372 46.2238C23.2325 46.1462 22.3059 45.8624 21.6902 45.6227C20.8738 45.305 20.2914 44.9267 19.679 44.3156C19.0666 43.7044 18.6875 43.1228 18.3711 42.307C18.1311 41.6919 17.8471 40.7656 17.7696 39.0619C17.6848 37.2199 17.6679 36.6666 17.6679 32.0001C17.6679 27.3335 17.6862 26.7817 17.7696 24.9383C17.8472 23.2346 18.1333 22.3101 18.3711 21.6932C18.6889 20.8773 19.0674 20.2952 19.679 19.6832C20.2905 19.0711 20.8724 18.6923 21.6902 18.3761C22.3057 18.1362 23.2325 17.8524 24.9372 17.775C26.7803 17.6902 27.3339 17.6733 32.0012 17.6733C36.6684 17.6733 37.2226 17.6916 39.0672 17.775C40.7719 17.8525 41.697 18.1384 42.3142 18.3761C43.1306 18.6923 43.7131 19.072 44.3254 19.6832C44.9378 20.2944 45.3155 20.8773 45.6333 21.6932C45.8734 22.3083 46.1573 23.2346 46.2348 24.9383C46.3196 26.7817 46.3365 27.3335 46.3365 32.0001C46.3365 36.6666 46.3196 37.2184 46.2348 39.0619C46.1572 40.7656 45.8718 41.6916 45.6333 42.307C45.3155 43.1228 44.937 43.7049 44.3254 44.3156C43.7139 44.9262 43.1306 45.305 42.3142 45.6227C41.6988 45.8625 40.7719 46.1463 39.0672 46.2238C37.2241 46.3085 36.6705 46.3254 32.0012 46.3254C27.3318 46.3254 26.7797 46.3085 24.9372 46.2238ZM24.7924 14.6312C22.9311 14.7159 21.6591 15.0109 20.5483 15.4429C19.398 15.889 18.4241 16.4874 17.451 17.4585C16.4778 18.4295 15.8805 19.4043 15.4342 20.554C15.0019 21.6648 14.7068 22.9353 14.622 24.7955C14.5359 26.6587 14.5161 27.2544 14.5161 31.9999C14.5161 36.7454 14.5359 37.3411 14.622 39.2043C14.7068 41.0647 15.0019 42.3351 15.4342 43.4459C15.8805 44.5949 16.478 45.5708 17.451 46.5414C18.424 47.512 19.398 48.1096 20.5483 48.557C21.6612 48.9889 22.9311 49.2839 24.7924 49.3686C26.6577 49.4534 27.2528 49.4745 32.0012 49.4745C36.7495 49.4745 37.3456 49.4547 39.2099 49.3686C41.0714 49.2839 42.3425 48.9889 43.454 48.557C44.6037 48.1096 45.5782 47.5124 46.5514 46.5414C47.5245 45.5704 48.1205 44.5949 48.5682 43.4459C49.0004 42.3351 49.2969 41.0646 49.3803 39.2043C49.4651 37.3397 49.4848 36.7454 49.4848 31.9999C49.4848 27.2544 49.4651 26.6587 49.3803 24.7955C49.2955 22.9351 49.0004 21.6641 48.5682 20.554C48.1205 19.405 47.523 18.431 46.5514 17.4585C45.5798 16.4859 44.6037 15.889 43.4554 15.4429C42.3425 15.0109 41.0713 14.7145 39.2113 14.6312C37.347 14.5465 36.7509 14.5254 32.0026 14.5254C27.2542 14.5254 26.6577 14.5451 24.7924 14.6312Z" fill="url(#paint0_radial_80_552)"/>
<path d="M26.1738 31.9999C26.1738 28.7831 28.7824 26.1746 32.0012 26.1746C35.2199 26.1746 37.83 28.7831 37.83 31.9999C37.83 35.2168 35.2199 37.8252 32.0012 37.8252C28.7824 37.8252 26.1738 35.2168 26.1738 31.9999ZM23.0228 31.9999C23.0228 36.9557 27.0424 40.9729 32.0012 40.9729C36.9599 40.9729 40.9795 36.9557 40.9795 31.9999C40.9795 27.0441 36.9599 23.027 32.0012 23.027C27.0424 23.027 23.0228 27.0441 23.0228 31.9999ZM39.2367 22.6712C39.2366 23.0859 39.3595 23.4914 39.5899 23.8363C39.8203 24.1813 40.1479 24.4502 40.5312 24.609C40.9146 24.7679 41.3364 24.8096 41.7435 24.7288C42.1505 24.6481 42.5245 24.4485 42.818 24.1554C43.1116 23.8622 43.3115 23.4887 43.3927 23.0819C43.4738 22.6752 43.4324 22.2536 43.2738 21.8703C43.1151 21.4871 42.8463 21.1595 42.5013 20.9289C42.1564 20.6984 41.7508 20.5752 41.3358 20.5751H41.3349C40.7787 20.5753 40.2453 20.7962 39.8519 21.1892C39.4585 21.5823 39.2372 22.1153 39.2367 22.6712ZM24.9372 46.2238C23.2325 46.1462 22.3059 45.8624 21.6902 45.6227C20.8738 45.305 20.2914 44.9267 19.679 44.3156C19.0666 43.7044 18.6875 43.1228 18.3711 42.307C18.1311 41.6919 17.8471 40.7656 17.7696 39.0619C17.6848 37.2199 17.6679 36.6666 17.6679 32.0001C17.6679 27.3335 17.6862 26.7817 17.7696 24.9383C17.8472 23.2346 18.1333 22.3101 18.3711 21.6932C18.6889 20.8773 19.0674 20.2952 19.679 19.6832C20.2905 19.0711 20.8724 18.6923 21.6902 18.3761C22.3057 18.1362 23.2325 17.8524 24.9372 17.775C26.7803 17.6902 27.3339 17.6733 32.0012 17.6733C36.6684 17.6733 37.2226 17.6916 39.0672 17.775C40.7719 17.8525 41.697 18.1384 42.3142 18.3761C43.1306 18.6923 43.7131 19.072 44.3254 19.6832C44.9378 20.2944 45.3155 20.8773 45.6333 21.6932C45.8734 22.3083 46.1573 23.2346 46.2348 24.9383C46.3196 26.7817 46.3365 27.3335 46.3365 32.0001C46.3365 36.6666 46.3196 37.2184 46.2348 39.0619C46.1572 40.7656 45.8718 41.6916 45.6333 42.307C45.3155 43.1228 44.937 43.7049 44.3254 44.3156C43.7139 44.9262 43.1306 45.305 42.3142 45.6227C41.6988 45.8625 40.7719 46.1463 39.0672 46.2238C37.2241 46.3085 36.6705 46.3254 32.0012 46.3254C27.3318 46.3254 26.7797 46.3085 24.9372 46.2238ZM24.7924 14.6312C22.9311 14.7159 21.6591 15.0109 20.5483 15.4429C19.398 15.889 18.4241 16.4874 17.451 17.4585C16.4778 18.4295 15.8805 19.4043 15.4342 20.554C15.0019 21.6648 14.7068 22.9353 14.622 24.7955C14.5359 26.6587 14.5161 27.2544 14.5161 31.9999C14.5161 36.7454 14.5359 37.3411 14.622 39.2043C14.7068 41.0647 15.0019 42.3351 15.4342 43.4459C15.8805 44.5949 16.478 45.5708 17.451 46.5414C18.424 47.512 19.398 48.1096 20.5483 48.557C21.6612 48.9889 22.9311 49.2839 24.7924 49.3686C26.6577 49.4534 27.2528 49.4745 32.0012 49.4745C36.7495 49.4745 37.3456 49.4547 39.2099 49.3686C41.0714 49.2839 42.3425 48.9889 43.454 48.557C44.6037 48.1096 45.5782 47.5124 46.5514 46.5414C47.5245 45.5704 48.1205 44.5949 48.5682 43.4459C49.0004 42.3351 49.2969 41.0646 49.3803 39.2043C49.4651 37.3397 49.4848 36.7454 49.4848 31.9999C49.4848 27.2544 49.4651 26.6587 49.3803 24.7955C49.2955 22.9351 49.0004 21.6641 48.5682 20.554C48.1205 19.405 47.523 18.431 46.5514 17.4585C45.5798 16.4859 44.6037 15.889 43.4554 15.4429C42.3425 15.0109 41.0713 14.7145 39.2113 14.6312C37.347 14.5465 36.7509 14.5254 32.0026 14.5254C27.2542 14.5254 26.6577 14.5451 24.7924 14.6312Z" fill="#D7D7D7"/>
<defs>
<radialGradient id="paint0_radial_80_552" cx="0" cy="0" r="1" gradientUnits="userSpaceOnUse" gradientTransform="translate(19.1621 49.6396) scale(45.6504 45.6231)">
<stop offset="0.09" stop-color="#FA8F21"/>
<stop offset="0.78" stop-color="#D82D7E"/>
</radialGradient>
</defs>
</svg>
