<svg width="64" height="64" viewBox="0 0 64 64" fill="none" xmlns="http://www.w3.org/2000/svg">
<path fill-rule="evenodd" clip-rule="evenodd" d="M31.8119 16.001C41.2534 16.001 48.9071 22.1298 48.9071 29.6901C48.9071 32.3308 47.9727 34.7964 46.3549 36.8876C46.2749 37.0066 46.1703 37.1381 46.0384 37.2834L46.0284 37.2942C45.4758 37.9554 44.8535 38.5761 44.1693 39.149C39.4419 43.5186 31.6606 48.721 30.6336 47.9184C29.7408 47.2207 32.104 43.8083 29.3775 43.2404C29.1873 43.2185 28.9976 43.1951 28.8095 43.1684L28.8059 43.1682V43.168C20.798 42.0303 14.7168 36.4289 14.7168 29.6901C14.7166 22.1298 22.3705 16.001 31.8119 16.001Z" fill="white"/>
<path fill-rule="evenodd" clip-rule="evenodd" d="M21.8938 34.0556H25.3416C25.832 34.0556 26.2332 33.6544 26.2332 33.1639V33.0896C26.2332 32.5991 25.832 32.198 25.3416 32.198H22.8597V26.5512C22.8597 26.0608 22.4586 25.6597 21.9681 25.6597H21.8938C21.4033 25.6597 21.0022 26.0608 21.0022 26.5512V33.1638C21.0022 33.6544 21.4033 34.0556 21.8938 34.0556ZM43.2583 29.9107V29.8364C43.2583 29.3459 42.8571 28.9448 42.3666 28.9448H39.8849V27.5331H42.3666C42.8571 27.5331 43.2583 27.132 43.2583 26.6415V26.5671C43.2583 26.0767 42.8571 25.6756 42.3666 25.6756H38.9188C38.4284 25.6756 38.0272 26.0767 38.0272 26.5671V33.1797C38.0272 33.6702 38.4284 34.0714 38.9188 34.0714H42.3666C42.8571 34.0714 43.2583 33.6702 43.2583 33.1797V33.1053C43.2583 32.6149 42.8571 32.2138 42.3666 32.2138H39.8849V30.8021H42.3666C42.8571 30.8023 43.2583 30.4011 43.2583 29.9107ZM36.6277 33.7898L36.628 33.7894C36.7929 33.6231 36.8856 33.3983 36.8858 33.1641V26.5515C36.8858 26.061 36.4846 25.6599 35.9941 25.6599H35.9197C35.4293 25.6599 35.0281 26.061 35.0281 26.5515V30.4331L31.8055 26.1108C31.6516 25.842 31.3617 25.6599 31.0314 25.6599H30.957C30.4666 25.6599 30.0653 26.061 30.0653 26.5515V33.1641C30.0653 33.6545 30.4665 34.0557 30.957 34.0557H31.0314C31.5218 34.0557 31.923 33.6545 31.923 33.1641V29.2098L35.1688 33.643C35.1887 33.6741 35.2106 33.704 35.2341 33.7323L35.2343 33.7326C35.3234 33.8542 35.4454 33.9376 35.5814 33.9885C35.6858 34.0317 35.8 34.0556 35.9196 34.0556H35.994C36.1393 34.0557 36.2823 34.0199 36.4105 33.9515C36.4997 33.9091 36.5748 33.8543 36.6277 33.7898ZM27.8443 34.0556H27.9187C28.4091 34.0556 28.8103 33.6544 28.8103 33.1639V26.5514C28.8103 26.0609 28.4091 25.6598 27.9187 25.6598H27.8443C27.3539 25.6598 26.9526 26.0609 26.9526 26.5514V33.1639C26.9526 33.6544 27.3539 34.0556 27.8443 34.0556Z" fill="#1F2732"/>
</svg>
