<svg width="47" height="47" viewBox="0 0 47 47" fill="none" xmlns="http://www.w3.org/2000/svg">
<circle cx="23.58" cy="23.3987" r="22.5" stroke="#CCAA60" stroke-width="1.5"/>
<path d="M29.8478 18.7487H17.3121C17.1842 18.7487 17.0616 18.8004 16.9712 18.8925C16.8808 18.9846 16.83 19.1094 16.83 19.2396V29.0578C16.83 29.188 16.8808 29.3129 16.9712 29.4049C17.0616 29.497 17.1842 29.5487 17.3121 29.5487H29.8478C29.9757 29.5487 30.0983 29.497 30.1887 29.4049C30.2792 29.3129 30.33 29.188 30.33 29.0578V19.2396C30.33 19.1094 30.2792 18.9846 30.1887 18.8925C30.0983 18.8004 29.9757 18.7487 29.8478 18.7487ZM23.8759 25.0271C23.7913 25.0941 23.6871 25.1305 23.58 25.1305C23.4728 25.1305 23.3687 25.0941 23.284 25.0271L18.5642 21.2895L19.156 20.5145L23.58 24.0177L28.0039 20.5145L28.5957 21.2895L23.8759 25.0271Z" fill="#CCAA60"/>
</svg>
