<svg width="48" height="47" viewBox="0 0 48 47" fill="none" xmlns="http://www.w3.org/2000/svg">
<circle cx="24.2449" cy="23.3987" r="22.5" stroke="#CCAA60" stroke-width="1.5"/>
<path d="M30.2151 27.0221C30.0665 26.8639 29.542 26.396 28.5777 25.777C27.6064 25.1526 26.89 24.7632 26.6845 24.6725C26.6664 24.6644 26.6465 24.6615 26.6268 24.6639C26.6072 24.6664 26.5886 24.6742 26.573 24.6864C26.242 24.9445 25.6847 25.4187 25.6548 25.4443C25.4619 25.6097 25.4619 25.6097 25.3039 25.5581C25.0261 25.4671 24.1632 25.0089 23.4113 24.2552C22.6594 23.5016 22.1775 22.6173 22.0865 22.3398C22.0344 22.1816 22.0344 22.1816 22.2003 21.9886C22.2259 21.9588 22.7004 21.4015 22.9585 21.0708C22.9707 21.0552 22.9785 21.0366 22.981 21.017C22.9834 20.9973 22.9805 20.9773 22.9724 20.9592C22.8816 20.7535 22.4923 20.0374 21.8679 19.0661C21.248 18.1021 20.7807 17.5776 20.6224 17.429C20.6079 17.4153 20.59 17.4058 20.5705 17.4014C20.551 17.3971 20.5307 17.398 20.5117 17.4043C19.9586 17.5943 19.4249 17.8369 18.9179 18.1286C18.4285 18.4131 17.9652 18.7402 17.5333 19.1062C17.5183 19.119 17.507 19.1357 17.5006 19.1544C17.4943 19.1732 17.4932 19.1933 17.4975 19.2126C17.557 19.4898 17.8413 20.647 18.7236 22.2499C19.6238 23.8858 20.2476 24.724 21.5696 26.0414C22.8916 27.3588 23.7562 28.0203 25.3939 28.9205C26.9968 29.8027 28.1545 30.0873 28.4312 30.1462C28.4505 30.1504 28.4707 30.1493 28.4895 30.143C28.5083 30.1367 28.525 30.1254 28.5379 30.1104C28.9038 29.6785 29.2309 29.2152 29.5152 28.7258C29.8069 28.2188 30.0494 27.6851 30.2396 27.132C30.2456 27.1132 30.2466 27.0931 30.2423 27.0737C30.238 27.0544 30.2286 27.0366 30.2151 27.0221Z" fill="#CCAA60"/>
</svg>
