<svg width="64" height="64" viewBox="0 0 64 64" fill="none" xmlns="http://www.w3.org/2000/svg">
<path d="M38.5294 25.1482C39.2206 25.1482 39.8957 25.2057 40.5617 25.2878C39.3576 19.9998 33.8035 16 27.125 16C19.5656 16 13.439 21.1205 13.439 27.4353C13.439 31.076 15.4874 34.3061 18.6647 36.3961L16.8604 40.0143L21.7756 37.9033C22.8296 38.2786 23.9249 38.5877 25.0947 38.7316C24.9348 38.0337 24.844 37.3183 24.844 36.5841C24.844 30.2783 30.9817 25.1482 38.5294 25.1482ZM31.6869 21.1455C32.6314 21.1455 33.3974 21.9139 33.3974 22.8611C33.3974 23.8085 32.6315 24.5763 31.6869 24.5763C30.7418 24.5763 29.9761 23.8085 29.9761 22.8611C29.9761 21.9138 30.7418 21.1455 31.6869 21.1455ZM22.5629 24.5763C21.6182 24.5763 20.8522 23.8085 20.8522 22.8611C20.8522 21.9139 21.6183 21.1455 22.5629 21.1455C23.5075 21.1455 24.2736 21.9139 24.2736 22.8611C24.2736 23.8085 23.5074 24.5763 22.5629 24.5763Z" fill="white"/>
<path d="M49.9343 36.5839C49.9343 31.5314 44.8268 27.4353 38.5294 27.4353C32.2317 27.4353 27.125 31.5314 27.125 36.5839C27.125 41.6361 32.2317 45.7322 38.5294 45.7322C39.5651 45.7322 40.5502 45.5858 41.5061 45.378L47.6534 48.0192L45.5273 43.7587C48.1917 42.0842 49.9343 39.5092 49.9343 36.5839ZM35.1081 36.012C34.1635 36.012 33.3973 35.244 33.3973 34.2964C33.3973 33.3492 34.1634 32.5814 35.1081 32.5814C36.053 32.5814 36.8187 33.3495 36.8187 34.2964C36.8187 35.244 36.0529 36.012 35.1081 36.012ZM41.9508 36.012C41.0058 36.012 40.2402 35.244 40.2402 34.2964C40.2402 33.3492 41.0057 32.5814 41.9508 32.5814C42.8958 32.5814 43.6616 33.3495 43.6616 34.2964C43.6616 35.244 42.8958 36.012 41.9508 36.012Z" fill="white"/>
</svg>
