<svg width="64" height="64" viewBox="0 0 64 64" fill="none" xmlns="http://www.w3.org/2000/svg">
<path d="M16.0001 46.7202L18.296 38.191C16.4444 34.8684 15.8562 30.9913 16.6392 27.271C17.4222 23.5507 19.524 20.2369 22.5588 17.9375C25.5937 15.6382 29.358 14.5076 33.1611 14.7532C36.9642 14.9989 40.551 16.6043 43.2632 19.2748C45.9754 21.9453 47.6312 25.5019 47.9266 29.2918C48.2221 33.0817 47.1374 36.8509 44.8717 39.9075C42.6059 42.9641 39.3111 45.1032 35.5918 45.9323C31.8725 46.7614 27.9781 46.2249 24.6234 44.4211L16.0001 46.7202ZM25.0392 41.2294L25.5725 41.545C28.0024 42.9816 30.8405 43.5761 33.6445 43.2358C36.4485 42.8955 39.0608 41.6396 41.0745 39.6638C43.0882 37.688 44.3901 35.1033 44.7772 32.3124C45.1644 29.5215 44.6151 26.6812 43.215 24.2343C41.8149 21.7873 39.6426 19.871 37.0366 18.784C34.4306 17.697 31.5373 17.5005 28.8076 18.2249C26.0779 18.9494 23.6652 20.5542 21.9453 22.7892C20.2255 25.0242 19.2952 27.7639 19.2994 30.5814C19.2971 32.9176 19.9448 35.2085 21.1705 37.1992L21.5049 37.7492L20.2214 42.5097L25.0392 41.2294Z" fill="white"/>
<path fill-rule="evenodd" clip-rule="evenodd" d="M37.9829 32.7715C37.6703 32.52 37.3042 32.343 36.9126 32.2539C36.521 32.1649 36.1142 32.1661 35.7231 32.2576C35.1356 32.501 34.756 33.4207 34.3763 33.8805C34.2963 33.9907 34.1786 34.068 34.0455 34.0979C33.9124 34.1278 33.7729 34.1082 33.6532 34.0428C31.5022 33.2025 29.6992 31.6614 28.5371 29.67C28.4379 29.5457 28.391 29.3879 28.4062 29.2299C28.4214 29.0718 28.4975 28.9257 28.6184 28.8225C29.0418 28.4044 29.3527 27.8865 29.5223 27.3168C29.56 26.6884 29.4156 26.0624 29.1065 25.5136C28.8676 24.7441 28.4128 24.0589 27.7959 23.539C27.4777 23.3963 27.1249 23.3485 26.7801 23.4012C26.4352 23.454 26.1131 23.6052 25.8525 23.8366C25.4 24.2259 25.0409 24.7116 24.8016 25.2577C24.5622 25.8038 24.4487 26.3965 24.4695 26.9922C24.4709 27.3267 24.5134 27.6598 24.596 27.984C24.8059 28.7629 25.1287 29.507 25.5542 30.1929C25.8611 30.7183 26.1961 31.2269 26.5575 31.7166C27.7322 33.3251 29.2088 34.6908 30.9053 35.7378C31.7566 36.2699 32.6665 36.7025 33.617 37.0271C34.6044 37.4735 35.6945 37.6449 36.7717 37.523C37.3854 37.4303 37.9669 37.1886 38.4649 36.8192C38.963 36.4497 39.3624 35.9638 39.628 35.4042C39.7841 35.0662 39.8314 34.6882 39.7636 34.3223C39.6009 33.574 38.5976 33.1322 37.9829 32.7715Z" fill="white"/>
</svg>
